<svg width="35" height="35" viewBox="0 0 35 35" version="1.1" xmlns="http://www.w3.org/2000/svg" xmlns:xlink="http://www.w3.org/1999/xlink">
<title>icon</title>
<desc>Created using Figma</desc>
<g id="Canvas" transform="translate(-6 60)">
<g id="icon">
<path d="M 6 -60L 41 -60L 41 -25L 6 -25L 6 -60Z" fill="#BDBDBD"/>
<g id="BA">
<use xlink:href="#path0_fill" transform="translate(6 -60)" fill="#6C6A81"/>
</g>
</g>
</g>
<defs>
<path id="path0_fill" d="M 3.09906 9.224L 10.8031 9.224C 12.2911 9.224 13.4431 9.608 14.2591 10.376C 15.0751 11.144 15.4831 12.264 15.4831 13.736C 15.4831 14.568 15.2831 15.304 14.8831 15.944C 14.4991 16.568 13.9871 17.032 13.3471 17.336C 15.1391 17.864 16.0351 19.168 16.0351 21.248C 16.0351 22.224 15.8191 23.072 15.3871 23.792C 14.9711 24.496 14.3951 25.04 13.6591 25.424C 12.9231 25.808 12.1071 26 11.2111 26L 3.09906 26L 3.09906 9.224ZM 10.4911 16.424C 11.2751 16.424 11.8911 16.208 12.3391 15.776C 12.7871 15.344 13.0111 14.704 13.0111 13.856C 13.0111 12.88 12.7871 12.2 12.3391 11.816C 11.9071 11.416 11.2351 11.216 10.3231 11.216L 5.54706 11.216L 5.54706 16.424L 10.4911 16.424ZM 10.6591 24.008C 11.6031 24.008 12.3231 23.8 12.8191 23.384C 13.3151 22.968 13.5631 22.256 13.5631 21.248C 13.5631 20.24 13.2991 19.52 12.7711 19.088C 12.2591 18.656 11.4831 18.44 10.4431 18.44L 5.54706 18.44L 5.54706 24.008L 10.6591 24.008ZM 23.3307 9.224L 25.6827 9.224L 32.3787 26L 29.8827 26L 28.2027 21.824L 20.7867 21.824L 19.1547 26L 16.6347 26L 23.3307 9.224ZM 27.5307 19.784L 24.5067 11.936L 21.4827 19.784L 27.5307 19.784Z"/>
</defs>
</svg>
