<svg width="125" height="35" viewBox="0 0 125 35" version="1.1" xmlns="http://www.w3.org/2000/svg" xmlns:xlink="http://www.w3.org/1999/xlink">
<title>logo-wide</title>
<desc>Created using Figma</desc>
<g id="Canvas" transform="translate(154 60)">
<g id="logo-wide">
<path d="M -154 -60L -29 -60L -29 -25L -154 -25L -154 -60Z" fill="#BDBDBD"/>
<g id="BOOKAT">
<use xlink:href="#path0_fill" transform="translate(-154 -60)" fill="#6C6A81"/>
</g>
</g>
</g>
<defs>
<path id="path0_fill" d="M 6.85711 7.428L 15.8451 7.428C 17.5811 7.428 18.9251 7.876 19.8771 8.772C 20.8291 9.668 21.3051 10.9747 21.3051 12.692C 21.3051 13.6627 21.0718 14.5213 20.6051 15.268C 20.1571 15.996 19.5598 16.5373 18.8131 16.892C 20.9038 17.508 21.9491 19.0293 21.9491 21.456C 21.9491 22.5947 21.6971 23.584 21.1931 24.424C 20.7078 25.2453 20.0358 25.88 19.1771 26.328C 18.3184 26.776 17.3664 27 16.3211 27L 6.85711 27L 6.85711 7.428ZM 15.4811 15.828C 16.3958 15.828 17.1144 15.576 17.6371 15.072C 18.1598 14.568 18.4211 13.8213 18.4211 12.832C 18.4211 11.6933 18.1598 10.9 17.6371 10.452C 17.1331 9.98533 16.3491 9.752 15.2851 9.752L 9.71311 9.752L 9.71311 15.828L 15.4811 15.828ZM 15.6771 24.676C 16.7784 24.676 17.6184 24.4333 18.1971 23.948C 18.7758 23.4627 19.0651 22.632 19.0651 21.456C 19.0651 20.28 18.7571 19.44 18.1411 18.936C 17.5438 18.432 16.6384 18.18 15.4251 18.18L 9.71311 18.18L 9.71311 24.676L 15.6771 24.676ZM 34.0738 27.42C 32.1324 27.42 30.3778 27 28.8098 26.16C 27.2418 25.3013 26.0098 24.0973 25.1138 22.548C 24.2178 20.9987 23.7698 19.2253 23.7698 17.228C 23.7698 15.2307 24.2178 13.4573 25.1138 11.908C 26.0098 10.3587 27.2418 9.15467 28.8098 8.296C 30.3778 7.43733 32.1324 7.008 34.0738 7.008C 36.0151 7.008 37.7698 7.43733 39.3378 8.296C 40.9058 9.15467 42.1378 10.3587 43.0338 11.908C 43.9298 13.4573 44.3778 15.2307 44.3778 17.228C 44.3778 19.2253 43.9298 20.9987 43.0338 22.548C 42.1378 24.0973 40.9058 25.3013 39.3378 26.16C 37.7698 27 36.0151 27.42 34.0738 27.42ZM 34.0738 24.844C 35.4551 24.844 36.7058 24.536 37.8258 23.92C 38.9644 23.2853 39.8604 22.3987 40.5138 21.26C 41.1671 20.1027 41.4938 18.7587 41.4938 17.228C 41.4938 15.716 41.1671 14.3907 40.5138 13.252C 39.8791 12.0947 39.0018 11.208 37.8818 10.592C 36.7618 9.95733 35.5111 9.64 34.1298 9.64C 32.7298 9.64 31.4604 9.948 30.3218 10.564C 29.2018 11.18 28.3058 12.0667 27.6338 13.224C 26.9804 14.3813 26.6538 15.716 26.6538 17.228C 26.6538 18.7587 26.9804 20.1027 27.6338 21.26C 28.2871 22.3987 29.1738 23.2853 30.2938 23.92C 31.4324 24.536 32.6924 24.844 34.0738 24.844ZM 57.0699 27.42C 55.1285 27.42 53.3739 27 51.8059 26.16C 50.2379 25.3013 49.0059 24.0973 48.1099 22.548C 47.2139 20.9987 46.7659 19.2253 46.7659 17.228C 46.7659 15.2307 47.2139 13.4573 48.1099 11.908C 49.0059 10.3587 50.2379 9.15467 51.8059 8.296C 53.3739 7.43733 55.1285 7.008 57.0699 7.008C 59.0112 7.008 60.7659 7.43733 62.3339 8.296C 63.9019 9.15467 65.1339 10.3587 66.0299 11.908C 66.9259 13.4573 67.3739 15.2307 67.3739 17.228C 67.3739 19.2253 66.9259 20.9987 66.0299 22.548C 65.1339 24.0973 63.9019 25.3013 62.3339 26.16C 60.7659 27 59.0112 27.42 57.0699 27.42ZM 57.0699 24.844C 58.4512 24.844 59.7019 24.536 60.8219 23.92C 61.9605 23.2853 62.8565 22.3987 63.5099 21.26C 64.1632 20.1027 64.4899 18.7587 64.4899 17.228C 64.4899 15.716 64.1632 14.3907 63.5099 13.252C 62.8752 12.0947 61.9979 11.208 60.8779 10.592C 59.7579 9.95733 58.5072 9.64 57.1259 9.64C 55.7259 9.64 54.4565 9.948 53.3179 10.564C 52.1979 11.18 51.3019 12.0667 50.6299 13.224C 49.9765 14.3813 49.6499 15.716 49.6499 17.228C 49.6499 18.7587 49.9765 20.1027 50.6299 21.26C 51.2832 22.3987 52.1699 23.2853 53.2899 23.92C 54.4285 24.536 55.6885 24.844 57.0699 24.844ZM 70.4587 7.428L 73.3147 7.428L 73.3147 27L 70.4587 27L 70.4587 7.428ZM 73.4547 17.032L 82.3867 7.428L 85.8587 7.428L 76.9267 17.032L 86.4187 27L 82.9467 27L 73.4547 17.032ZM 95.2107 7.428L 97.9547 7.428L 105.767 27L 102.855 27L 100.895 22.128L 92.2427 22.128L 90.3387 27L 87.3987 27L 95.2107 7.428ZM 100.111 19.748L 96.5827 10.592L 93.0547 19.748L 100.111 19.748ZM 110.305 9.836L 104.229 9.836L 104.229 7.428L 119.265 7.428L 119.265 9.836L 113.189 9.836L 113.189 27L 110.305 27L 110.305 9.836Z"/>
</defs>
</svg>
