<svg width="125" height="125" viewBox="0 0 125 125" version="1.1" xmlns="http://www.w3.org/2000/svg" xmlns:xlink="http://www.w3.org/1999/xlink">
<title>logo-transparent-outline</title>
<desc>Created using Figma</desc>
<g id="Canvas" transform="translate(-150 -150)">
<g id="bookat">
<g id="logo-transparent-outline">
<g id="Rectangle">
<mask id="mask0_outline_ins">
<use xlink:href="#path0_fill" fill="white" transform="translate(150 150)"/>
</mask>
<g mask="url(#mask0_outline_ins)">
<use xlink:href="#path1_stroke_2x" transform="translate(150 150)" fill="#6C6A81"/>
</g>
</g>
<g id="Text">
<use xlink:href="#path2_fill" transform="translate(150 150)" fill="#6C6A81"/>
</g>
</g>
</g>
</g>
<defs>
<path id="path0_fill" d="M 0 0L 125 0L 125 125L 0 125L 0 0Z"/>
<path id="path1_stroke_2x" d="M 0 0L 0 -2L -2 -2L -2 0L 0 0ZM 125 0L 127 0L 127 -2L 125 -2L 125 0ZM 125 125L 125 127L 127 127L 127 125L 125 125ZM 0 125L -2 125L -2 127L 0 127L 0 125ZM 0 2L 125 2L 125 -2L 0 -2L 0 2ZM 123 0L 123 125L 127 125L 127 0L 123 0ZM 125 123L 0 123L 0 127L 125 127L 125 123ZM 2 125L 2 0L -2 0L -2 125L 2 125Z"/>
<path id="path2_fill" d="M 6.85711 52.428L 15.8451 52.428C 17.5811 52.428 18.9251 52.876 19.8771 53.772C 20.8291 54.668 21.3051 55.9747 21.3051 57.692C 21.3051 58.6627 21.0718 59.5213 20.6051 60.268C 20.1571 60.996 19.5598 61.5373 18.8131 61.892C 20.9038 62.508 21.9491 64.0293 21.9491 66.456C 21.9491 67.5947 21.6971 68.584 21.1931 69.424C 20.7078 70.2453 20.0358 70.88 19.1771 71.328C 18.3184 71.776 17.3664 72 16.3211 72L 6.85711 72L 6.85711 52.428ZM 15.4811 60.828C 16.3958 60.828 17.1144 60.576 17.6371 60.072C 18.1598 59.568 18.4211 58.8213 18.4211 57.832C 18.4211 56.6933 18.1598 55.9 17.6371 55.452C 17.1331 54.9853 16.3491 54.752 15.2851 54.752L 9.71311 54.752L 9.71311 60.828L 15.4811 60.828ZM 15.6771 69.676C 16.7784 69.676 17.6184 69.4333 18.1971 68.948C 18.7758 68.4627 19.0651 67.632 19.0651 66.456C 19.0651 65.28 18.7571 64.44 18.1411 63.936C 17.5438 63.432 16.6384 63.18 15.4251 63.18L 9.71311 63.18L 9.71311 69.676L 15.6771 69.676ZM 34.0738 72.42C 32.1324 72.42 30.3778 72 28.8098 71.16C 27.2418 70.3013 26.0098 69.0973 25.1138 67.548C 24.2178 65.9987 23.7698 64.2253 23.7698 62.228C 23.7698 60.2307 24.2178 58.4573 25.1138 56.908C 26.0098 55.3587 27.2418 54.1547 28.8098 53.296C 30.3778 52.4373 32.1324 52.008 34.0738 52.008C 36.0151 52.008 37.7698 52.4373 39.3378 53.296C 40.9058 54.1547 42.1378 55.3587 43.0338 56.908C 43.9298 58.4573 44.3778 60.2307 44.3778 62.228C 44.3778 64.2253 43.9298 65.9987 43.0338 67.548C 42.1378 69.0973 40.9058 70.3013 39.3378 71.16C 37.7698 72 36.0151 72.42 34.0738 72.42ZM 34.0738 69.844C 35.4551 69.844 36.7058 69.536 37.8258 68.92C 38.9644 68.2853 39.8604 67.3987 40.5138 66.26C 41.1671 65.1027 41.4938 63.7587 41.4938 62.228C 41.4938 60.716 41.1671 59.3907 40.5138 58.252C 39.8791 57.0947 39.0018 56.208 37.8818 55.592C 36.7618 54.9573 35.5111 54.64 34.1298 54.64C 32.7298 54.64 31.4604 54.948 30.3218 55.564C 29.2018 56.18 28.3058 57.0667 27.6338 58.224C 26.9804 59.3813 26.6538 60.716 26.6538 62.228C 26.6538 63.7587 26.9804 65.1027 27.6338 66.26C 28.2871 67.3987 29.1738 68.2853 30.2938 68.92C 31.4324 69.536 32.6924 69.844 34.0738 69.844ZM 57.0699 72.42C 55.1285 72.42 53.3739 72 51.8059 71.16C 50.2379 70.3013 49.0059 69.0973 48.1099 67.548C 47.2139 65.9987 46.7659 64.2253 46.7659 62.228C 46.7659 60.2307 47.2139 58.4573 48.1099 56.908C 49.0059 55.3587 50.2379 54.1547 51.8059 53.296C 53.3739 52.4373 55.1285 52.008 57.0699 52.008C 59.0112 52.008 60.7659 52.4373 62.3339 53.296C 63.9019 54.1547 65.1339 55.3587 66.0299 56.908C 66.9259 58.4573 67.3739 60.2307 67.3739 62.228C 67.3739 64.2253 66.9259 65.9987 66.0299 67.548C 65.1339 69.0973 63.9019 70.3013 62.3339 71.16C 60.7659 72 59.0112 72.42 57.0699 72.42ZM 57.0699 69.844C 58.4512 69.844 59.7019 69.536 60.8219 68.92C 61.9605 68.2853 62.8565 67.3987 63.5099 66.26C 64.1632 65.1027 64.4899 63.7587 64.4899 62.228C 64.4899 60.716 64.1632 59.3907 63.5099 58.252C 62.8752 57.0947 61.9979 56.208 60.8779 55.592C 59.7579 54.9573 58.5072 54.64 57.1259 54.64C 55.7259 54.64 54.4565 54.948 53.3179 55.564C 52.1979 56.18 51.3019 57.0667 50.6299 58.224C 49.9765 59.3813 49.6499 60.716 49.6499 62.228C 49.6499 63.7587 49.9765 65.1027 50.6299 66.26C 51.2832 67.3987 52.1699 68.2853 53.2899 68.92C 54.4285 69.536 55.6885 69.844 57.0699 69.844ZM 70.4587 52.428L 73.3147 52.428L 73.3147 72L 70.4587 72L 70.4587 52.428ZM 73.4547 62.032L 82.3867 52.428L 85.8587 52.428L 76.9267 62.032L 86.4187 72L 82.9467 72L 73.4547 62.032ZM 95.2107 52.428L 97.9547 52.428L 105.767 72L 102.855 72L 100.895 67.128L 92.2427 67.128L 90.3387 72L 87.3987 72L 95.2107 52.428ZM 100.111 64.748L 96.5827 55.592L 93.0547 64.748L 100.111 64.748ZM 110.305 54.836L 104.229 54.836L 104.229 52.428L 119.265 52.428L 119.265 54.836L 113.189 54.836L 113.189 72L 110.305 72L 110.305 54.836Z"/>
</defs>
</svg>
