<?xml version="1.0" standalone="no"?>
<!DOCTYPE svg PUBLIC "-//W3C//DTD SVG 20010904//EN"
 "http://www.w3.org/TR/2001/REC-SVG-20010904/DTD/svg10.dtd">
<svg version="1.0" xmlns="http://www.w3.org/2000/svg"
 width="700.000000pt" height="700.000000pt" viewBox="0 0 700.000000 700.000000"
 preserveAspectRatio="xMidYMid meet">
<metadata>
Created by potrace 1.11, written by Peter Selinger 2001-2013
</metadata>
<g transform="translate(0.000000,700.000000) scale(0.100000,-0.100000)"
fill="#000000" stroke="none">
<path d="M1809 4079 c-219 -32 -391 -181 -455 -394 -25 -82 -25 -258 0 -340
66 -220 244 -368 472 -393 86 -10 203 -1 276 22 171 51 316 204 363 383 20 75
20 241 0 316 -74 281 -349 452 -656 406z m279 -179 c88 -40 151 -103 194 -195
32 -67 33 -75 33 -190 -1 -149 -20 -207 -100 -293 -173 -188 -493 -174 -639
27 -147 203 -91 514 116 635 113 66 273 73 396 16z"/>
<path d="M3105 4081 c-138 -23 -232 -68 -320 -156 -220 -218 -220 -602 0 -820
107 -106 238 -156 410 -156 213 0 384 86 486 244 65 101 84 172 84 322 0 110
-4 140 -23 197 -60 172 -203 307 -375 352 -72 19 -198 27 -262 17z m269 -179
c149 -70 236 -211 236 -384 0 -181 -84 -318 -238 -391 -63 -30 -74 -32 -178
-32 -107 0 -112 1 -186 38 -166 82 -250 254 -221 453 32 224 202 360 435 350
71 -3 98 -9 152 -34z"/>
<path d="M380 3515 l0 -546 313 3 c301 3 314 4 363 26 129 58 196 203 165 354
-15 71 -55 127 -114 158 l-45 24 42 38 c65 56 89 122 84 223 -7 117 -49 188
-143 239 -38 20 -55 21 -352 24 l-313 3 0 -546z m577 398 c96 -45 96 -240 1
-298 -30 -18 -52 -20 -223 -20 l-190 0 -3 168 -2 167 191 0 c158 0 197 -3 226
-17z m33 -478 c54 -32 74 -77 74 -162 0 -78 -12 -106 -68 -147 -25 -19 -44
-21 -242 -24 l-214 -3 0 181 0 181 208 -3 c187 -3 210 -5 242 -23z"/>
<path d="M3950 3515 l0 -545 80 0 80 0 0 545 0 545 -80 0 -80 0 0 -545z"/>
<path d="M4413 3848 c-109 -117 -219 -236 -245 -264 -27 -28 -48 -54 -48 -58
0 -4 118 -131 261 -282 l262 -274 95 0 95 0 -24 27 c-13 15 -114 122 -223 238
-110 115 -217 229 -239 251 l-39 41 218 234 c119 129 231 249 247 267 l31 32
-96 0 -97 0 -198 -212z"/>
<path d="M5321 4038 c-5 -13 -100 -250 -211 -528 -112 -278 -205 -513 -208
-523 -4 -16 3 -18 78 -15 l82 3 52 133 51 132 243 -2 244 -3 52 -130 53 -130
83 -3 c64 -2 81 0 77 10 -3 7 -101 253 -218 546 l-213 532 -78 0 c-72 0 -79
-2 -87 -22z m188 -411 c50 -131 91 -242 91 -248 0 -5 -77 -9 -190 -9 -145 0
-190 3 -190 13 0 22 185 496 191 489 4 -4 48 -114 98 -245z"/>
<path d="M5840 3995 l0 -65 170 0 170 0 0 -480 0 -480 80 0 80 0 0 480 0 480
170 0 170 0 0 65 0 65 -420 0 -420 0 0 -65z"/>
</g>
</svg>
