<?xml version="1.0" standalone="no"?>
<!DOCTYPE svg PUBLIC "-//W3C//DTD SVG 20010904//EN"
 "http://www.w3.org/TR/2001/REC-SVG-20010904/DTD/svg10.dtd">
<svg version="1.0" xmlns="http://www.w3.org/2000/svg"
 width="700.000000pt" height="700.000000pt" viewBox="0 0 700.000000 700.000000"
 preserveAspectRatio="xMidYMid meet">
<metadata>
Created by potrace 1.11, written by Peter Selinger 2001-2013
</metadata>
<g transform="translate(0.000000,700.000000) scale(0.100000,-0.100000)"
fill="#000000" stroke="none">
<path d="M0 3500 l0 -3500 3500 0 3500 0 0 3500 0 3500 -3500 0 -3500 0 0
-3500z m6890 0 l0 -3390 -3390 0 -3390 0 0 3390 0 3390 3390 0 3390 0 0 -3390z"/>
<path d="M1809 4080 c-221 -35 -391 -182 -455 -395 -25 -82 -25 -258 0 -340
59 -194 198 -329 394 -381 76 -20 230 -20 316 0 193 45 350 199 401 393 20 76
20 241 0 317 -49 186 -204 342 -387 390 -75 19 -200 27 -269 16z m279 -180
c88 -40 151 -103 194 -195 32 -67 33 -75 33 -190 -1 -149 -20 -207 -100 -293
-173 -188 -493 -174 -639 27 -147 203 -91 514 116 635 113 66 273 73 396 16z"/>
<path d="M3100 4080 c-287 -45 -480 -272 -480 -565 0 -268 162 -482 415 -550
78 -21 241 -21 320 0 187 49 325 175 387 353 19 57 23 87 23 197 0 110 -4 140
-23 197 -60 172 -203 307 -375 352 -74 19 -199 27 -267 16z m274 -178 c149
-70 236 -211 236 -384 0 -181 -84 -318 -238 -391 -63 -30 -74 -32 -178 -32
-107 0 -112 1 -186 38 -167 82 -250 253 -221 453 32 224 202 360 435 350 71
-3 98 -9 152 -34z"/>
<path d="M380 3515 l0 -546 313 3 c304 3 313 4 364 27 127 57 195 203 164 353
-15 71 -55 127 -114 158 l-45 24 42 38 c65 56 89 122 84 223 -7 117 -49 188
-143 239 -38 20 -55 21 -352 24 l-313 3 0 -546z m577 398 c95 -45 98 -237 4
-295 -34 -22 -46 -23 -226 -23 l-190 0 -3 168 -2 167 191 0 c158 0 197 -3 226
-17z m33 -478 c54 -32 75 -77 75 -162 -1 -78 -14 -106 -69 -147 -25 -19 -44
-21 -242 -24 l-214 -3 0 181 0 181 208 -3 c187 -3 210 -5 242 -23z"/>
<path d="M3950 3515 l0 -545 80 0 80 0 0 545 0 545 -80 0 -80 0 0 -545z"/>
<path d="M4368 3799 c-134 -143 -244 -264 -246 -269 -2 -5 115 -133 259 -285
l262 -275 95 0 95 0 -24 27 c-13 15 -114 122 -223 238 -110 115 -217 229 -239
251 l-39 41 218 234 c119 129 231 249 247 267 l31 32 -97 0 -96 0 -243 -261z"/>
<path d="M5321 4038 c-5 -13 -99 -248 -209 -523 -109 -275 -202 -510 -206
-523 -8 -23 -7 -23 74 -20 l82 3 52 133 51 132 243 -2 244 -3 52 -130 53 -130
83 -3 c64 -2 81 0 77 10 -2 7 -101 253 -218 546 l-213 532 -78 0 c-72 0 -79
-2 -87 -22z m188 -410 c50 -130 91 -241 91 -247 0 -8 -61 -11 -190 -11 -145 0
-190 3 -190 13 0 22 185 496 191 489 4 -4 48 -114 98 -244z"/>
<path d="M5840 3995 l0 -65 170 0 170 0 0 -480 0 -480 80 0 80 0 0 480 0 480
170 0 170 0 0 65 0 65 -420 0 -420 0 0 -65z"/>
</g>
</svg>
